<svg width="113" height="50" viewBox="0 0 113 50" fill="none" xmlns="http://www.w3.org/2000/svg">
<rect width="113" height="50" rx="25" fill="#8BAC3E"/>
<rect x="71" y="9" width="33" height="33" rx="16.5" fill="white"/>
<g clip-path="url(#clip0)">
<path d="M92.2314 24.8522L84.0695 16.693C83.7113 16.3357 83.1311 16.3357 82.772 16.693C82.4139 17.0502 82.4139 17.6305 82.772 17.9877L90.2866 25.4996L82.7729 33.0114C82.4148 33.3687 82.4148 33.9489 82.7729 34.307C83.1311 34.6643 83.7122 34.6643 84.0704 34.307L92.2323 26.1478C92.585 25.7942 92.585 25.2049 92.2314 24.8522Z" fill="#8BAC3E"/>
</g>
<path d="M18.8586 32C18.7519 32 18.6612 31.9627 18.5866 31.888C18.5119 31.8133 18.4746 31.7227 18.4746 31.616V21.2C18.4746 21.0827 18.5066 20.9867 18.5706 20.912C18.6452 20.8373 18.7412 20.8 18.8586 20.8H20.0906C20.2186 20.8 20.3146 20.8267 20.3786 20.88C20.4426 20.9227 20.5012 20.9813 20.5546 21.056L25.1626 28.224V21.2C25.1626 21.0827 25.1946 20.9867 25.2586 20.912C25.3332 20.8373 25.4292 20.8 25.5466 20.8H26.8906C27.0079 20.8 27.1039 20.8373 27.1786 20.912C27.2532 20.9867 27.2906 21.0827 27.2906 21.2V31.6C27.2906 31.7173 27.2532 31.8133 27.1786 31.888C27.1039 31.9627 27.0132 32 26.9066 32H25.6586C25.4772 32 25.3226 31.9147 25.1946 31.744L20.6026 24.736V31.616C20.6026 31.7333 20.5652 31.8293 20.4906 31.904C20.4159 31.968 20.3199 32 20.2026 32H18.8586ZM30.1711 32C30.0644 32 29.9737 31.9627 29.8991 31.888C29.8244 31.8133 29.7871 31.7227 29.7871 31.616V21.2C29.7871 21.0827 29.8191 20.9867 29.8831 20.912C29.9577 20.8373 30.0537 20.8 30.1711 20.8H37.2111C37.3284 20.8 37.4244 20.8373 37.4991 20.912C37.5737 20.9867 37.6111 21.0827 37.6111 21.2V22.256C37.6111 22.3733 37.5737 22.4693 37.4991 22.544C37.4244 22.608 37.3284 22.64 37.2111 22.64H31.9471V25.472H36.8591C36.9764 25.472 37.0724 25.5093 37.1471 25.584C37.2217 25.648 37.2591 25.7387 37.2591 25.856V26.848C37.2591 26.9653 37.2217 27.0613 37.1471 27.136C37.0724 27.2 36.9764 27.232 36.8591 27.232H31.9471V30.16H37.3391C37.4564 30.16 37.5524 30.1973 37.6271 30.272C37.7017 30.3467 37.7391 30.4427 37.7391 30.56V31.616C37.7391 31.7333 37.7017 31.8293 37.6271 31.904C37.5524 31.968 37.4564 32 37.3391 32H30.1711ZM39.1162 32C39.0202 32 38.9402 31.968 38.8762 31.904C38.8122 31.84 38.7802 31.76 38.7802 31.664C38.7802 31.6 38.7962 31.536 38.8282 31.472L42.4122 26.288L39.0522 21.328C39.0202 21.2747 39.0042 21.2107 39.0042 21.136C39.0042 21.04 39.0362 20.96 39.1002 20.896C39.1642 20.832 39.2442 20.8 39.3402 20.8H40.9722C41.1642 20.8 41.3295 20.9013 41.4682 21.104L43.8202 24.56L46.1882 21.104C46.3269 20.9013 46.4922 20.8 46.6842 20.8H48.2362C48.3322 20.8 48.4122 20.832 48.4762 20.896C48.5402 20.96 48.5722 21.04 48.5722 21.136C48.5722 21.2107 48.5509 21.2747 48.5082 21.328L45.1642 26.288L48.7482 31.472C48.7909 31.5573 48.8122 31.6213 48.8122 31.664C48.8122 31.76 48.7749 31.84 48.7002 31.904C48.6362 31.968 48.5615 32 48.4762 32H46.7802C46.5775 32 46.4175 31.904 46.3002 31.712L43.7402 28.096L41.2282 31.712C41.0895 31.904 40.9242 32 40.7322 32H39.1162ZM53.1819 32C53.0753 32 52.9846 31.9627 52.9099 31.888C52.8353 31.8133 52.7979 31.7227 52.7979 31.616V22.768H49.8379C49.7313 22.768 49.6406 22.7307 49.5659 22.656C49.4913 22.5813 49.4539 22.4907 49.4539 22.384V21.2C49.4539 21.0827 49.4859 20.9867 49.5499 20.912C49.6246 20.8373 49.7206 20.8 49.8379 20.8H57.9979C58.1153 20.8 58.2113 20.8373 58.2859 20.912C58.3606 20.9867 58.3979 21.0827 58.3979 21.2V22.384C58.3979 22.4907 58.3606 22.5813 58.2859 22.656C58.2113 22.7307 58.1153 22.768 57.9979 22.768H55.0539V31.616C55.0539 31.7227 55.0166 31.8133 54.9419 31.888C54.8673 31.9627 54.7713 32 54.6539 32H53.1819Z" fill="white"/>
<defs>
<clipPath id="clip0">
<rect width="18.15" height="18.15" fill="white" transform="translate(78.425 16.425)"/>
</clipPath>
</defs>
</svg>
