<svg width="113" height="50" viewBox="0 0 113 50" fill="none" xmlns="http://www.w3.org/2000/svg">
<rect width="113" height="50" rx="25" fill="#8BAC3E"/>
<rect x="13" y="9" width="33" height="33" rx="16.5" fill="white"/>
<path d="M22.0257 24.8218L31.4693 16.2805C31.8837 15.9065 32.555 15.9065 32.9705 16.2805C33.3848 16.6544 33.3848 17.2619 32.9705 17.6358L24.2759 25.4995L32.9694 33.3631C33.3838 33.7371 33.3838 34.3445 32.9694 34.7194C32.555 35.0934 31.8826 35.0934 31.4683 34.7194L22.0247 26.1781C21.6166 25.808 21.6166 25.191 22.0257 24.8218Z" fill="#8BAC3E"/>
<path d="M54.6554 31C54.5488 31 54.4581 30.9627 54.3834 30.888C54.3088 30.8133 54.2714 30.7227 54.2714 30.616V20.2C54.2714 20.0827 54.3034 19.9867 54.3674 19.912C54.4421 19.8373 54.5381 19.8 54.6554 19.8H58.9434C60.2234 19.8 61.2314 20.104 61.9674 20.712C62.7034 21.3093 63.0714 22.1893 63.0714 23.352C63.0714 24.5147 62.7034 25.3947 61.9674 25.992C61.2421 26.5787 60.2341 26.872 58.9434 26.872H56.5594V30.616C56.5594 30.7227 56.5221 30.8133 56.4474 30.888C56.3834 30.9627 56.2928 31 56.1754 31H54.6554ZM58.8634 25.096C59.4821 25.096 59.9568 24.952 60.2874 24.664C60.6181 24.3653 60.7834 23.928 60.7834 23.352C60.7834 22.7973 60.6234 22.3653 60.3034 22.056C59.9834 21.736 59.5034 21.576 58.8634 21.576H56.5274V25.096H58.8634ZM65.2023 31C65.0956 31 65.005 30.9627 64.9303 30.888C64.8556 30.8133 64.8183 30.7227 64.8183 30.616V20.2C64.8183 20.0827 64.8503 19.9867 64.9143 19.912C64.989 19.8373 65.085 19.8 65.2023 19.8H69.3463C70.6476 19.8 71.6663 20.104 72.4023 20.712C73.149 21.32 73.5223 22.184 73.5223 23.304C73.5223 24.0827 73.3303 24.7387 72.9463 25.272C72.573 25.7947 72.0503 26.1733 71.3783 26.408L73.7143 30.488C73.7463 30.552 73.7623 30.6107 73.7623 30.664C73.7623 30.76 73.725 30.84 73.6503 30.904C73.5863 30.968 73.5116 31 73.4263 31H71.9703C71.7996 31 71.6663 30.9627 71.5703 30.888C71.485 30.8133 71.405 30.7067 71.3303 30.568L69.2663 26.776H67.0423V30.616C67.0423 30.7227 67.005 30.8133 66.9303 30.888C66.8663 30.9627 66.7756 31 66.6583 31H65.2023ZM69.2983 24.968C69.9383 24.968 70.4183 24.824 70.7383 24.536C71.069 24.248 71.2343 23.832 71.2343 23.288C71.2343 22.744 71.069 22.3227 70.7383 22.024C70.4183 21.7253 69.9383 21.576 69.2983 21.576H67.0423V24.968H69.2983ZM75.9679 31C75.8613 31 75.7706 30.9627 75.6959 30.888C75.6213 30.8133 75.5839 30.7227 75.5839 30.616V20.2C75.5839 20.0827 75.6159 19.9867 75.6799 19.912C75.7546 19.8373 75.8506 19.8 75.9679 19.8H83.0079C83.1253 19.8 83.2213 19.8373 83.2959 19.912C83.3706 19.9867 83.4079 20.0827 83.4079 20.2V21.256C83.4079 21.3733 83.3706 21.4693 83.2959 21.544C83.2213 21.608 83.1253 21.64 83.0079 21.64H77.7439V24.472H82.6559C82.7733 24.472 82.8693 24.5093 82.9439 24.584C83.0186 24.648 83.0559 24.7387 83.0559 24.856V25.848C83.0559 25.9653 83.0186 26.0613 82.9439 26.136C82.8693 26.2 82.7733 26.232 82.6559 26.232H77.7439V29.16H83.1359C83.2533 29.16 83.3493 29.1973 83.4239 29.272C83.4986 29.3467 83.5359 29.4427 83.5359 29.56V30.616C83.5359 30.7333 83.4986 30.8293 83.4239 30.904C83.3493 30.968 83.2533 31 83.1359 31H75.9679ZM88.7073 31C88.398 31 88.1953 30.8507 88.0993 30.552L84.6753 20.28L84.6433 20.136C84.6433 20.04 84.6753 19.96 84.7393 19.896C84.8033 19.832 84.8833 19.8 84.9793 19.8H86.3873C86.526 19.8 86.6326 19.8373 86.7073 19.912C86.7926 19.976 86.8513 20.056 86.8833 20.152L89.5873 28.392L92.2913 20.152C92.3126 20.0667 92.366 19.9867 92.4513 19.912C92.5366 19.8373 92.6486 19.8 92.7873 19.8H94.1953C94.2806 19.8 94.3553 19.832 94.4193 19.896C94.494 19.96 94.5313 20.04 94.5313 20.136L94.4993 20.28L91.0753 30.552C90.9793 30.8507 90.7766 31 90.4673 31H88.7073Z" fill="white"/>
</svg>
